<svg width="45" height="45" xmlns="http://www.w3.org/2000/svg" xmlns:xlink="http://www.w3.org/1999/xlink" xml:space="preserve" overflow="hidden"><g transform="translate(-302 -121)"><path d="M340.438 146.74 340.438 130.844 310.438 130.844 310.438 128.922C310.435 126.878 308.779 125.221 306.734 125.219L306.688 125.219C306.429 125.219 306.219 125.429 306.219 125.688 306.219 125.946 306.429 126.156 306.688 126.156L306.734 126.156C308.261 126.158 309.498 127.395 309.5 128.922L309.5 152.406C309.502 154.141 310.855 155.575 312.587 155.678 311.155 156.562 310.711 158.439 311.595 159.871 312.479 161.303 314.356 161.747 315.788 160.863 317.22 159.979 317.664 158.102 316.78 156.67 316.535 156.272 316.2 155.936 315.804 155.688L333.194 155.688C331.768 156.581 331.336 158.461 332.229 159.887 333.122 161.313 335.003 161.745 336.429 160.852 337.855 159.959 338.287 158.079 337.394 156.653 337.149 156.262 336.819 155.932 336.429 155.688L339.969 155.688C340.228 155.688 340.438 155.478 340.438 155.219 340.438 154.96 340.228 154.75 339.969 154.75L312.781 154.75C311.487 154.748 310.439 153.7 310.438 152.406L310.438 149.552ZM334.812 160.375C333.648 160.375 332.703 159.431 332.703 158.266 332.703 157.101 333.648 156.156 334.812 156.156 335.977 156.156 336.922 157.101 336.922 158.266 336.921 159.43 335.977 160.374 334.812 160.375ZM314.188 160.375C313.023 160.375 312.078 159.431 312.078 158.266 312.078 157.101 313.023 156.156 314.188 156.156 315.352 156.156 316.297 157.101 316.297 158.266 316.296 159.43 315.352 160.374 314.188 160.375ZM310.438 137.406 317 137.406 317 142.094 310.438 142.094ZM332 142.094 325.438 142.094 325.438 137.406 332 137.406ZM332.938 137.406 339.5 137.406 339.5 142.094 332.938 142.094ZM325.438 143.031 332 143.031 332 146.589 325.438 147.203ZM324.5 147.292 317.938 147.906 317.938 143.031 324.5 143.031ZM325.438 136.469 325.438 131.781 332 131.781 332 136.469ZM324.5 136.469 317.938 136.469 317.938 131.781 324.5 131.781ZM324.5 137.406 324.5 142.094 317.938 142.094 317.938 137.406ZM310.438 143.031 317 143.031 317 147.995 310.438 148.609ZM332.938 146.5 332.938 143.031 339.5 143.031 339.5 145.885ZM339.5 136.469 332.938 136.469 332.938 131.781 339.5 131.781ZM317 131.781 317 136.469 310.438 136.469 310.438 131.781Z" fill="#FFFFFF"/></g></svg>