<svg width="45" height="45" xmlns="http://www.w3.org/2000/svg" xmlns:xlink="http://www.w3.org/1999/xlink" xml:space="preserve" overflow="hidden"><g transform="translate(-350 -121)"><path d="M372.5 128.5C376.124 128.5 379.062 131.438 379.062 135.062 379.062 138.687 376.124 141.625 372.5 141.625 368.876 141.625 365.938 138.687 365.938 135.062 365.941 131.44 368.877 128.504 372.5 128.5M372.5 127.562C368.358 127.562 365 130.92 365 135.062 365 139.205 368.358 142.562 372.5 142.562 376.642 142.562 380 139.205 380 135.062 380 130.92 376.642 127.562 372.5 127.562Z" fill="#FFFFFF"/><path d="M387.5 159.438 386.562 159.438 386.562 152.172C386.54 151.176 386.071 150.243 385.285 149.632 383.229 148.054 380.876 146.909 378.365 146.266 376.465 145.681 374.488 145.381 372.5 145.375 370.512 145.41 368.538 145.709 366.629 146.266 364.146 146.993 361.802 148.134 359.698 149.641 358.919 150.253 358.457 151.182 358.438 152.172L358.438 159.438 357.5 159.438 357.5 152.172C357.523 150.892 358.122 149.69 359.129 148.9 361.329 147.321 363.779 146.126 366.377 145.364 368.367 144.784 370.427 144.473 372.5 144.438 374.578 144.443 376.643 144.755 378.629 145.365 381.258 146.043 383.723 147.246 385.875 148.902 386.88 149.692 387.477 150.893 387.5 152.172Z" fill="#FFFFFF"/></g></svg>